<svg xmlns="http://www.w3.org/2000/svg" width="211.578" height="45.822" viewBox="0 0 211.578 45.822">
  <g id="Group_1" data-name="Group 1" transform="translate(-79.232 -50)">
    <g id="temp_abstract-6211BJ1162BJ11_temp" transform="translate(78.232 33)">
      <path id="Path_1" data-name="Path 1" d="M3.791,81.4,1,92.506H2.35A11.507,11.507,0,0,0,10.688,88.9l7.057-7.5Z" transform="translate(0 -29.684)" fill="#fff"/>
      <path id="Path_2" data-name="Path 2" d="M10.6,51.338,6.92,65.957H25.4l15.22-14.619Z" transform="translate(-2.729 -15.827)" fill="#fff"/>
      <path id="Path_3" data-name="Path 3" d="M28.013,17a11.89,11.89,0,0,0-11.539,9l-2,7.928H51.146L70.913,17Z" transform="translate(-6.212)" fill="#fff"/>
    </g>
    <path id="Path_4" data-name="Path 4" d="M28.614-27.7l-1.025,4.75H19.5L14.64,0H8.93l4.865-22.952H5.4L6.422-27.7ZM52.9-20.026a9.486,9.486,0,0,1-5.472,6.688q2.622,1.6,2.28,3.572L48.564-3a1.883,1.883,0,0,0,.608,1.938L48.944,0H42.788a8.592,8.592,0,0,1-.076-3.192l.874-4.18a7.6,7.6,0,0,0,.19-1.482q0-2.09-2.73-2.09H34.3L31.969,0H26.258l5.889-27.7H47.728a5.446,5.446,0,0,1,3.648,1.292,5.27,5.27,0,0,1,1.748,4.256A10.887,10.887,0,0,1,52.9-20.026Zm-5.4-.608q0-2.318-2.7-2.318H36.81l-1.5,7.258h7.864a3.883,3.883,0,0,0,2.963-1.634A5.145,5.145,0,0,0,47.5-20.634ZM77.367,0H71.543l-.761-5.548H60.549L57.437,0h-5.8L67.185-27.7h6.573Zm-6.9-10.3L69.1-21.116,63.384-10.3ZM108.6-27.7,93.29,0h-4.9l-3.5-27.7H90.63L92.3-6.84,102.828-27.7Zm23.788,0-1.027,4.75H116.99l-1.3,6.308h13.246l-.989,4.75H114.678L113.159-4.75h15.015L127.148,0h-20.71l5.889-27.7ZM151.81-4.75,150.784,0H131.822l5.889-27.7h5.672L138.543-4.75Z" transform="translate(139 89.701)" fill="#fff"/>
  </g>
</svg>